<?xml version="1.0" encoding="utf-8"?>
<!-- Generator: Adobe Illustrator 18.0.0, SVG Export Plug-In . SVG Version: 6.00 Build 0)  -->
<!DOCTYPE svg PUBLIC "-//W3C//DTD SVG 1.1//EN" "http://www.w3.org/Graphics/SVG/1.1/DTD/svg11.dtd">
<svg version="1.1" id="Layer_1" xmlns="http://www.w3.org/2000/svg" xmlns:xlink="http://www.w3.org/1999/xlink" x="0px" y="0px"
	 viewBox="0 0 302 276.7" enable-background="new 0 0 302 276.7" xml:space="preserve">
<g>
	<path fill="none" stroke="#21409A" stroke-width="6.384" stroke-miterlimit="10" d="M277.2,160.4l1.1-34.9l-21.2-0.7
		c-1.3-7.3-3.3-14.3-5.9-20.9l19.4-10.7l-16.8-30.6l-20.7,11.3c-4.4-5.2-9.4-10-14.8-14.3l12.3-20.8l-30.1-17.8L188,42.4
		c-6.2-2.2-12.6-3.9-19.3-5V12.1h-35v25.3c-5,0.8-10,2-14.8,3.5l-11.8-22.1L76.3,35.1l11.4,21.5c-5,3.6-9.6,7.7-13.9,12.1L53.8,56
		L35,85.5l18.9,12c-3.1,6.5-5.5,13.3-7.2,20.4l-21.5-0.7L24,152.1l19.9,0.7c0.7,7.8,2.1,15.3,4.3,22.5l-16.6,9.1L48.6,215l15.4-8.4
		c4.7,6.5,10.2,12.5,16.2,17.9l-8.5,14.4l30.1,17.8l8.1-13.7c7.6,3.1,15.6,5.5,23.9,6.8v15.7h35v-15.7c6.6-1.1,13-2.7,19.1-4.9
		l7.4,14l30.9-16.4l-7.8-14.7c5.8-4.6,11.1-9.8,15.8-15.4l14.6,9.3l18.8-29.5l-15.7-10c2.7-7.1,4.7-14.6,5.9-22.3L277.2,160.4z"/>
	<path fill="#5FCCF5" stroke="#21409A" stroke-width="6.384" stroke-miterlimit="10" d="M151.2,62.4c-42.2,0-76.4,34.2-76.4,76.4
		c0,42.2,34.2,76.4,76.4,76.4c42.2,0,76.4-34.2,76.4-76.4C227.6,96.6,193.4,62.4,151.2,62.4z M151.2,191.1
		c-28.9,0-52.3-23.4-52.3-52.3c0-28.9,23.4-52.3,52.3-52.3c28.9,0,52.3,23.4,52.3,52.3C203.5,167.7,180.1,191.1,151.2,191.1z"/>
	<path fill="none" stroke="#21409A" stroke-width="6.384" stroke-miterlimit="10" d="M242.1,138.8c0,50.2-40.7,90.9-90.9,90.9"/>
</g>
</svg>
